<svg xmlns="http://www.w3.org/2000/svg" xmlns:xlink="http://www.w3.org/1999/xlink" width="500" zoomAndPan="magnify" viewBox="0 0 375 74.999997" height="100" preserveAspectRatio="xMidYMid meet" version="1.0"><defs><g/><clipPath id="ebbf112831"><path d="M 43 46 L 60 46 L 60 70.917969 L 43 70.917969 Z M 43 46 " clip-rule="nonzero"/></clipPath><clipPath id="2a2ae4c968"><path d="M 29.027344 29 L 71 29 L 71 47 L 29.027344 47 Z M 29.027344 29 " clip-rule="nonzero"/></clipPath></defs><path fill="#00aeef" d="M 39.769531 29.746094 L 55.816406 29.746094 L 55.816406 5.101562 Z M 39.769531 29.746094 " fill-opacity="0.42" fill-rule="nonzero"/><g clip-path="url(#ebbf112831)"><path fill="#00aeef" d="M 43.285156 46.089844 L 43.285156 70.734375 L 59.332031 46.089844 Z M 43.285156 46.089844 " fill-opacity="1" fill-rule="nonzero"/></g><g clip-path="url(#2a2ae4c968)"><path fill="#00aeef" d="M 59.332031 46.089844 L 70.074219 29.746094 L 39.769531 29.746094 L 29.027344 46.089844 Z M 59.332031 46.089844 " fill-opacity="0.72" fill-rule="nonzero"/></g><g fill="#003049" fill-opacity="1"><g transform="translate(76.73005, 63.622397)"><g><path d="M 1.109375 -9.125 C 2.296875 -10.570312 3.445312 -12.09375 4.5625 -13.6875 C 5.675781 -15.28125 6.640625 -16.894531 7.453125 -18.53125 C 8.421875 -17.007812 9.617188 -15.597656 11.046875 -14.296875 C 12.472656 -13.003906 14.046875 -11.976562 15.765625 -11.21875 C 17.492188 -10.457031 19.304688 -10.078125 21.203125 -10.078125 C 22.578125 -10.078125 23.863281 -10.25 25.0625 -10.59375 C 26.269531 -10.945312 27.253906 -11.515625 28.015625 -12.296875 C 28.773438 -13.078125 29.15625 -14.097656 29.15625 -15.359375 C 29.15625 -16.515625 28.664062 -17.460938 27.6875 -18.203125 C 26.707031 -18.941406 25.414062 -19.570312 23.8125 -20.09375 C 22.21875 -20.613281 20.460938 -21.128906 18.546875 -21.640625 C 16.640625 -22.160156 14.722656 -22.789062 12.796875 -23.53125 C 10.867188 -24.28125 9.109375 -25.25 7.515625 -26.4375 C 5.921875 -27.625 4.628906 -29.144531 3.640625 -31 C 2.660156 -32.851562 2.171875 -35.132812 2.171875 -37.84375 C 2.171875 -40.476562 2.789062 -42.820312 4.03125 -44.875 C 5.28125 -46.9375 6.953125 -48.691406 9.046875 -50.140625 C 11.140625 -51.585938 13.484375 -52.679688 16.078125 -53.421875 C 18.679688 -54.171875 21.351562 -54.546875 24.09375 -54.546875 C 27.65625 -54.546875 30.648438 -54.164062 33.078125 -53.40625 C 35.515625 -52.644531 37.539062 -51.722656 39.15625 -50.640625 C 40.769531 -49.566406 42.132812 -48.550781 43.25 -47.59375 C 42.320312 -46.144531 41.289062 -44.613281 40.15625 -43 C 39.019531 -41.382812 37.972656 -39.648438 37.015625 -37.796875 C 35.421875 -39.242188 33.546875 -40.515625 31.390625 -41.609375 C 29.234375 -42.703125 26.894531 -43.25 24.375 -43.25 C 23.1875 -43.25 21.976562 -43.082031 20.75 -42.75 C 19.53125 -42.414062 18.503906 -41.875 17.671875 -41.125 C 16.835938 -40.382812 16.421875 -39.40625 16.421875 -38.1875 C 16.421875 -36.914062 16.890625 -35.898438 17.828125 -35.140625 C 18.773438 -34.378906 20.035156 -33.757812 21.609375 -33.28125 C 23.191406 -32.800781 24.929688 -32.316406 26.828125 -31.828125 C 28.722656 -31.347656 30.601562 -30.773438 32.46875 -30.109375 C 34.34375 -29.441406 36.066406 -28.550781 37.640625 -27.4375 C 39.222656 -26.320312 40.488281 -24.882812 41.4375 -23.125 C 42.382812 -21.363281 42.859375 -19.128906 42.859375 -16.421875 C 42.859375 -12.785156 41.890625 -9.675781 39.953125 -7.09375 C 38.023438 -4.519531 35.398438 -2.554688 32.078125 -1.203125 C 28.765625 0.148438 25.03125 0.828125 20.875 0.828125 C 18.53125 0.828125 16.253906 0.539062 14.046875 -0.03125 C 11.835938 -0.601562 9.820312 -1.367188 8 -2.328125 C 6.1875 -3.296875 4.675781 -4.375 3.46875 -5.5625 C 2.269531 -6.75 1.484375 -7.9375 1.109375 -9.125 Z M 1.109375 -9.125 "/></g></g></g><g fill="#003049" fill-opacity="1"><g transform="translate(119.9765, 63.622397)"><g><path d="M 5.84375 0 C 4.957031 -2.632812 4.222656 -5.109375 3.640625 -7.421875 C 3.066406 -9.742188 2.640625 -12.128906 2.359375 -14.578125 C 2.085938 -17.023438 1.953125 -19.753906 1.953125 -22.765625 C 1.953125 -25.804688 2.335938 -28.859375 3.109375 -31.921875 C 3.890625 -34.984375 5.050781 -37.867188 6.59375 -40.578125 C 8.132812 -43.285156 10.023438 -45.6875 12.265625 -47.78125 C 14.515625 -49.875 17.125 -51.523438 20.09375 -52.734375 C 23.0625 -53.941406 26.34375 -54.546875 29.9375 -54.546875 C 31.6875 -54.546875 33.394531 -54.347656 35.0625 -53.953125 C 36.726562 -53.566406 38.210938 -53 39.515625 -52.25 C 40.816406 -51.507812 41.726562 -50.640625 42.25 -49.640625 L 42.25 -6.953125 C 42.25 -5.578125 42.414062 -4.210938 42.75 -2.859375 C 43.082031 -1.503906 43.5625 -0.550781 44.1875 0 L 27.765625 0 C 28.398438 -0.550781 28.882812 -1.492188 29.21875 -2.828125 C 29.550781 -4.171875 29.71875 -5.53125 29.71875 -6.90625 L 29.71875 -16.03125 L 14.796875 -16.03125 C 15.210938 -12.875 15.957031 -9.988281 17.03125 -7.375 C 18.101562 -4.757812 19.515625 -2.300781 21.265625 0 Z M 14.859375 -26.609375 L 29.71875 -26.609375 L 29.78125 -43.078125 C 27.332031 -43.078125 25.234375 -42.578125 23.484375 -41.578125 C 21.742188 -40.578125 20.28125 -39.25 19.09375 -37.59375 C 17.90625 -35.945312 16.976562 -34.164062 16.3125 -32.25 C 15.644531 -30.34375 15.160156 -28.460938 14.859375 -26.609375 Z M 14.859375 -26.609375 "/></g></g></g><g fill="#003049" fill-opacity="1"><g transform="translate(163.612557, 63.622397)"><g><path d="M 17.53125 0 L 1.109375 0 C 1.742188 -0.550781 2.226562 -1.503906 2.5625 -2.859375 C 2.894531 -4.210938 3.0625 -5.578125 3.0625 -6.953125 L 3.0625 -46.75 C 3.0625 -48.15625 2.894531 -49.523438 2.5625 -50.859375 C 2.226562 -52.203125 1.742188 -53.148438 1.109375 -53.703125 L 41.96875 -53.703125 L 41.96875 -40.015625 C 41.070312 -40.867188 40.039062 -41.515625 38.875 -41.953125 C 37.707031 -42.398438 36.546875 -42.707031 35.390625 -42.875 C 34.242188 -43.050781 33.207031 -43.140625 32.28125 -43.140625 L 15.578125 -43.140625 L 15.578125 -26.375 C 16.660156 -28.9375 18.414062 -31.035156 20.84375 -32.671875 C 23.269531 -34.304688 26.097656 -35.125 29.328125 -35.125 C 31.035156 -35.125 32.640625 -34.878906 34.140625 -34.390625 C 35.648438 -33.910156 36.703125 -33.242188 37.296875 -32.390625 L 37.296875 -19.875 C 36.546875 -20.5 35.695312 -21.078125 34.75 -21.609375 C 33.8125 -22.148438 32.644531 -22.578125 31.25 -22.890625 C 29.851562 -23.210938 28.097656 -23.375 25.984375 -23.375 C 25.617188 -23.375 25.019531 -23.335938 24.1875 -23.265625 C 23.351562 -23.191406 22.441406 -23.050781 21.453125 -22.84375 C 20.472656 -22.644531 19.535156 -22.367188 18.640625 -22.015625 C 17.753906 -21.660156 17.019531 -21.203125 16.4375 -20.640625 C 15.863281 -20.085938 15.578125 -19.421875 15.578125 -18.640625 L 15.578125 -6.90625 C 15.578125 -5.53125 15.742188 -4.171875 16.078125 -2.828125 C 16.410156 -1.492188 16.894531 -0.550781 17.53125 0 Z M 17.53125 0 "/></g></g></g><g fill="#003049" fill-opacity="1"><g transform="translate(205.578859, 63.622397)"><g><path d="M 1.109375 0 C 1.742188 -0.550781 2.226562 -1.503906 2.5625 -2.859375 C 2.894531 -4.210938 3.0625 -5.578125 3.0625 -6.953125 L 3.0625 -46.75 C 3.0625 -48.15625 2.894531 -49.523438 2.5625 -50.859375 C 2.226562 -52.203125 1.742188 -53.148438 1.109375 -53.703125 L 20.984375 -53.703125 C 25.734375 -53.703125 29.773438 -52.859375 33.109375 -51.171875 C 36.453125 -49.484375 39.015625 -47.15625 40.796875 -44.1875 C 42.578125 -41.21875 43.46875 -37.820312 43.46875 -34 C 43.46875 -31.257812 43.003906 -28.65625 42.078125 -26.1875 C 41.148438 -23.71875 39.84375 -21.535156 38.15625 -19.640625 C 36.46875 -17.753906 34.453125 -16.265625 32.109375 -15.171875 C 29.773438 -14.078125 27.179688 -13.53125 24.328125 -13.53125 C 23.804688 -13.53125 23.285156 -13.601562 22.765625 -13.75 C 22.242188 -13.894531 21.816406 -14.0625 21.484375 -14.25 L 15.578125 -27.765625 L 15.578125 -6.90625 C 15.578125 -5.53125 15.742188 -4.171875 16.078125 -2.828125 C 16.410156 -1.492188 16.894531 -0.550781 17.53125 0 Z M 21.921875 -43.140625 L 15.578125 -43.140625 L 15.578125 -29.890625 C 16.398438 -28.066406 17.363281 -26.65625 18.46875 -25.65625 C 19.582031 -24.65625 21.125 -24.15625 23.09375 -24.15625 C 24.914062 -24.15625 26.398438 -24.609375 27.546875 -25.515625 C 28.703125 -26.421875 29.554688 -27.625 30.109375 -29.125 C 30.660156 -30.632812 30.9375 -32.257812 30.9375 -34 C 30.9375 -35.5625 30.613281 -37.035156 29.96875 -38.421875 C 29.320312 -39.816406 28.328125 -40.953125 26.984375 -41.828125 C 25.648438 -42.703125 23.960938 -43.140625 21.921875 -43.140625 Z M 21.921875 -43.140625 "/></g></g></g><g fill="#003049" fill-opacity="1"><g transform="translate(249.047942, 63.622397)"><g><path d="M 1.953125 -26.828125 C 1.953125 -30.648438 2.441406 -34.238281 3.421875 -37.59375 C 4.398438 -40.945312 5.898438 -43.894531 7.921875 -46.4375 C 9.953125 -48.976562 12.5625 -50.960938 15.75 -52.390625 C 18.9375 -53.828125 22.722656 -54.546875 27.109375 -54.546875 C 31.523438 -54.546875 35.316406 -53.828125 38.484375 -52.390625 C 41.660156 -50.960938 44.257812 -48.976562 46.28125 -46.4375 C 48.300781 -43.894531 49.800781 -40.945312 50.78125 -37.59375 C 51.769531 -34.238281 52.265625 -30.648438 52.265625 -26.828125 C 52.265625 -23.003906 51.769531 -19.421875 50.78125 -16.078125 C 49.800781 -12.742188 48.300781 -9.804688 46.28125 -7.265625 C 44.257812 -4.722656 41.660156 -2.738281 38.484375 -1.3125 C 35.316406 0.113281 31.523438 0.828125 27.109375 0.828125 C 22.722656 0.828125 18.9375 0.113281 15.75 -1.3125 C 12.5625 -2.738281 9.953125 -4.722656 7.921875 -7.265625 C 5.898438 -9.804688 4.398438 -12.742188 3.421875 -16.078125 C 2.441406 -19.421875 1.953125 -23.003906 1.953125 -26.828125 Z M 14.46875 -26.875 C 14.46875 -23.800781 14.90625 -20.972656 15.78125 -18.390625 C 16.65625 -15.816406 18.019531 -13.769531 19.875 -12.25 C 21.726562 -10.726562 24.117188 -9.96875 27.046875 -9.96875 C 30.015625 -9.96875 32.4375 -10.726562 34.3125 -12.25 C 36.1875 -13.769531 37.554688 -15.816406 38.421875 -18.390625 C 39.296875 -20.972656 39.734375 -23.800781 39.734375 -26.875 C 39.734375 -30 39.296875 -32.835938 38.421875 -35.390625 C 37.554688 -37.953125 36.1875 -39.992188 34.3125 -41.515625 C 32.4375 -43.035156 30.015625 -43.796875 27.046875 -43.796875 C 24.117188 -43.796875 21.726562 -43.035156 19.875 -41.515625 C 18.019531 -39.992188 16.65625 -37.953125 15.78125 -35.390625 C 14.90625 -32.835938 14.46875 -30 14.46875 -26.875 Z M 14.46875 -26.875 "/></g></g></g><g fill="#003049" fill-opacity="1"><g transform="translate(302.145933, 63.622397)"><g><path d="M 1.109375 -9.125 C 2.296875 -10.570312 3.445312 -12.09375 4.5625 -13.6875 C 5.675781 -15.28125 6.640625 -16.894531 7.453125 -18.53125 C 8.421875 -17.007812 9.617188 -15.597656 11.046875 -14.296875 C 12.472656 -13.003906 14.046875 -11.976562 15.765625 -11.21875 C 17.492188 -10.457031 19.304688 -10.078125 21.203125 -10.078125 C 22.578125 -10.078125 23.863281 -10.25 25.0625 -10.59375 C 26.269531 -10.945312 27.253906 -11.515625 28.015625 -12.296875 C 28.773438 -13.078125 29.15625 -14.097656 29.15625 -15.359375 C 29.15625 -16.515625 28.664062 -17.460938 27.6875 -18.203125 C 26.707031 -18.941406 25.414062 -19.570312 23.8125 -20.09375 C 22.21875 -20.613281 20.460938 -21.128906 18.546875 -21.640625 C 16.640625 -22.160156 14.722656 -22.789062 12.796875 -23.53125 C 10.867188 -24.28125 9.109375 -25.25 7.515625 -26.4375 C 5.921875 -27.625 4.628906 -29.144531 3.640625 -31 C 2.660156 -32.851562 2.171875 -35.132812 2.171875 -37.84375 C 2.171875 -40.476562 2.789062 -42.820312 4.03125 -44.875 C 5.28125 -46.9375 6.953125 -48.691406 9.046875 -50.140625 C 11.140625 -51.585938 13.484375 -52.679688 16.078125 -53.421875 C 18.679688 -54.171875 21.351562 -54.546875 24.09375 -54.546875 C 27.65625 -54.546875 30.648438 -54.164062 33.078125 -53.40625 C 35.515625 -52.644531 37.539062 -51.722656 39.15625 -50.640625 C 40.769531 -49.566406 42.132812 -48.550781 43.25 -47.59375 C 42.320312 -46.144531 41.289062 -44.613281 40.15625 -43 C 39.019531 -41.382812 37.972656 -39.648438 37.015625 -37.796875 C 35.421875 -39.242188 33.546875 -40.515625 31.390625 -41.609375 C 29.234375 -42.703125 26.894531 -43.25 24.375 -43.25 C 23.1875 -43.25 21.976562 -43.082031 20.75 -42.75 C 19.53125 -42.414062 18.503906 -41.875 17.671875 -41.125 C 16.835938 -40.382812 16.421875 -39.40625 16.421875 -38.1875 C 16.421875 -36.914062 16.890625 -35.898438 17.828125 -35.140625 C 18.773438 -34.378906 20.035156 -33.757812 21.609375 -33.28125 C 23.191406 -32.800781 24.929688 -32.316406 26.828125 -31.828125 C 28.722656 -31.347656 30.601562 -30.773438 32.46875 -30.109375 C 34.34375 -29.441406 36.066406 -28.550781 37.640625 -27.4375 C 39.222656 -26.320312 40.488281 -24.882812 41.4375 -23.125 C 42.382812 -21.363281 42.859375 -19.128906 42.859375 -16.421875 C 42.859375 -12.785156 41.890625 -9.675781 39.953125 -7.09375 C 38.023438 -4.519531 35.398438 -2.554688 32.078125 -1.203125 C 28.765625 0.148438 25.03125 0.828125 20.875 0.828125 C 18.53125 0.828125 16.253906 0.539062 14.046875 -0.03125 C 11.835938 -0.601562 9.820312 -1.367188 8 -2.328125 C 6.1875 -3.296875 4.675781 -4.375 3.46875 -5.5625 C 2.269531 -6.75 1.484375 -7.9375 1.109375 -9.125 Z M 1.109375 -9.125 "/></g></g></g></svg>